<svg width="16" height="16" viewBox="0 0 16 16" fill="none" xmlns="http://www.w3.org/2000/svg">
<path d="M13.3333 8.66634C13.7015 8.66634 14 8.36786 14 7.99967C14 7.63148 13.7015 7.33301 13.3333 7.33301C12.9651 7.33301 12.6667 7.63148 12.6667 7.99967C12.6667 8.36786 12.9651 8.66634 13.3333 8.66634Z" fill="#FCFCFD"/>
<path d="M13.3333 11.333C13.7015 11.333 14 11.0345 14 10.6663C14 10.2982 13.7015 9.99967 13.3333 9.99967C12.9651 9.99967 12.6667 10.2982 12.6667 10.6663C12.6667 11.0345 12.9651 11.333 13.3333 11.333Z" fill="#FCFCFD"/>
<path d="M13.3333 13.9997C13.7015 13.9997 14 13.7012 14 13.333C14 12.9648 13.7015 12.6663 13.3333 12.6663C12.9651 12.6663 12.6667 12.9648 12.6667 13.333C12.6667 13.7012 12.9651 13.9997 13.3333 13.9997Z" fill="#FCFCFD"/>
<path d="M8 11.333C8.36819 11.333 8.66667 11.0345 8.66667 10.6663C8.66667 10.2982 8.36819 9.99967 8 9.99967C7.63181 9.99967 7.33333 10.2982 7.33333 10.6663C7.33333 11.0345 7.63181 11.333 8 11.333Z" fill="#FCFCFD"/>
<path d="M8 13.9997C8.36819 13.9997 8.66667 13.7012 8.66667 13.333C8.66667 12.9648 8.36819 12.6663 8 12.6663C7.63181 12.6663 7.33333 12.9648 7.33333 13.333C7.33333 13.7012 7.63181 13.9997 8 13.9997Z" fill="#FCFCFD"/>
<path d="M2.66667 13.9997C3.03486 13.9997 3.33333 13.7012 3.33333 13.333C3.33333 12.9648 3.03486 12.6663 2.66667 12.6663C2.29848 12.6663 2 12.9648 2 13.333C2 13.7012 2.29848 13.9997 2.66667 13.9997Z" fill="#FCFCFD"/>
<path fill-rule="evenodd" clip-rule="evenodd" d="M13.3332 6C12.2286 6 11.3332 5.10457 11.3332 4C11.3332 2.89543 12.2286 2 13.3332 2C14.4377 2 15.3332 2.89543 15.3332 4C15.3332 5.10457 14.4377 6 13.3332 6ZM13.3332 4.66667C12.965 4.66667 12.6665 4.36819 12.6665 4C12.6665 3.63181 12.965 3.33333 13.3332 3.33333C13.7014 3.33333 13.9998 3.63181 13.9998 4C13.9998 4.36819 13.7014 4.66667 13.3332 4.66667Z" fill="#FCFCFD"/>
<path fill-rule="evenodd" clip-rule="evenodd" d="M7.99984 8.66667C6.89527 8.66667 5.99984 7.77124 5.99984 6.66667C5.99984 5.5621 6.89527 4.66667 7.99984 4.66667C9.10441 4.66667 9.99984 5.5621 9.99984 6.66667C9.99984 7.77124 9.10441 8.66667 7.99984 8.66667ZM7.99984 7.33333C7.63165 7.33333 7.33317 7.03486 7.33317 6.66667C7.33317 6.29848 7.63165 6 7.99984 6C8.36803 6 8.6665 6.29848 8.6665 6.66667C8.6665 7.03486 8.36803 7.33333 7.99984 7.33333Z" fill="#FCFCFD"/>
<path fill-rule="evenodd" clip-rule="evenodd" d="M0.666504 9.33333C0.666504 10.4379 1.56193 11.3333 2.6665 11.3333C3.77107 11.3333 4.6665 10.4379 4.6665 9.33333C4.6665 8.22876 3.77107 7.33333 2.6665 7.33333C1.56193 7.33333 0.666504 8.22876 0.666504 9.33333ZM1.99984 9.33333C1.99984 9.70152 2.29831 10 2.6665 10C3.03469 10 3.33317 9.70152 3.33317 9.33333C3.33317 8.96514 3.03469 8.66667 2.6665 8.66667C2.29831 8.66667 1.99984 8.96514 1.99984 9.33333Z" fill="#FCFCFD"/>
</svg>
